<svg xmlns="http://www.w3.org/2000/svg" width="48" height="48" viewBox="0 0 48 48">
    <defs>
        <linearGradient id="388e8x3yya" x1="0%" x2="0%" y1="0%" y2="100%">
            <stop offset="0%" stop-color="#F9AA4B"/>
            <stop offset="100%" stop-color="#F7931A"/>
        </linearGradient>
    </defs>
    <g fill="none" fill-rule="evenodd">
        <g fill-rule="nonzero">
            <g>
                <g>
                    <path fill="url(#388e8x3yya)" d="M47.282 29.806c-3.206 12.857-16.23 20.682-29.09 17.475C5.337 44.076-2.488 31.053.719 18.197 3.923 5.338 16.947-2.487 29.803.718c12.86 3.206 20.684 16.23 17.479 29.088z" transform="translate(-164 -270) translate(64 142) translate(100 128)"/>
                    <path fill="#FFF" d="M35.033 20.917c.46-2.853-1.88-4.387-5.078-5.41l1.037-3.866-2.533-.586-1.01 3.763c-.667-.154-1.35-.3-2.03-.443l1.017-3.789L23.904 10l-1.038 3.864c-.552-.117-1.093-.232-1.618-.353l.003-.012-3.494-.81-.674 2.512s1.88.4 1.84.425c1.026.238 1.211.869 1.18 1.369L17.26 27.583c-.125.29-.443.724-1.16.56.025.033-1.842-.428-1.842-.428L13 30.408l3.297.764c.613.142 1.214.292 1.806.433l-1.048 3.91 2.53.585 1.039-3.868c.69.175 1.362.336 2.019.487l-1.035 3.85 2.533.586 1.049-3.902c4.32.76 7.569.453 8.936-3.176 1.102-2.921-.055-4.607-2.328-5.706 1.656-.354 2.903-1.365 3.235-3.454zm-5.788 7.538c-.783 2.922-6.08 1.342-7.798.946l1.391-5.18c1.718.399 7.225 1.187 6.407 4.234zm.783-7.58c-.714 2.657-5.123 1.307-6.553.976l1.261-4.697c1.43.33 6.036.948 5.292 3.72z" transform="translate(-164 -270) translate(64 142) translate(100 128)"/>
                </g>
            </g>
        </g>
    </g>
</svg>
